<?xml version="1.0" standalone="no"?>
<!DOCTYPE svg PUBLIC "-//W3C//DTD SVG 20010904//EN"
 "http://www.w3.org/TR/2001/REC-SVG-20010904/DTD/svg10.dtd">
<svg version="1.0" xmlns="http://www.w3.org/2000/svg"
 width="512.000000pt" height="512.000000pt" viewBox="0 0 512.000000 512.000000"
 preserveAspectRatio="xMidYMid meet">
<metadata>
Created by potrace 1.11, written by Peter Selinger 2001-2013
</metadata>
<g transform="translate(0.000000,512.000000) scale(0.100000,-0.100000)"
fill="#000000" stroke="none">
<path d="M0 2560 l0 -2560 2560 0 2560 0 0 2560 0 2560 -2560 0 -2560 0 0
-2560z m1760 1917 c0 -1 -252 -254 -560 -562 l-560 -560 0 563 0 562 560 0
c308 0 560 -1 560 -3z m2720 -557 c0 -308 -1 -560 -3 -560 -1 0 -254 252 -562
560 l-560 560 563 0 562 0 0 -560z m-1609 261 c374 -81 682 -277 911 -581 115
-153 239 -414 282 -593 l6 -27 -235 2 -236 3 -23 55 c-143 349 -396 573 -747
661 -121 30 -362 37 -483 15 -463 -88 -835 -472 -933 -963 -24 -121 -24 -368
0 -480 91 -430 377 -771 764 -913 217 -79 491 -81 730 -5 316 100 580 359 704
690 l20 55 230 0 c211 0 229 -1 229 -17 0 -37 -83 -263 -134 -368 -223 -455
-606 -759 -1092 -867 -85 -19 -130 -22 -319 -22 -191 -1 -233 2 -317 21 -428
97 -763 331 -1008 703 -427 652 -374 1504 131 2107 234 279 566 468 944 538
119 22 447 14 576 -14z m-1666 -2981 l560 -560 -563 0 -562 0 0 560 c0 308 1
560 3 560 1 0 254 -252 562 -560z m3275 0 l0 -560 -562 0 -563 0 560 560 c308
308 561 560 562 560 2 0 3 -252 3 -560z"/>
</g>
</svg>
